<?xml version="1.0" encoding="UTF-8"?>
<svg version="1.1" xmlns="http://www.w3.org/2000/svg" width="500" height="500">
<path d="M0 0 C5.15565339 -0.26911684 10.23186887 -0.14756297 15.38330078 0.15966797 C16.46417969 0.21864258 17.54505859 0.27761719 18.65869141 0.33837891 C45.80560497 1.97417311 71.53032413 7.79589742 96.38330078 19.15966797 C97.42067383 19.63073975 97.42067383 19.63073975 98.47900391 20.11132812 C114.60249972 27.54553787 129.65502097 36.9147203 143.38330078 48.15966797 C143.90166504 48.57651855 144.4200293 48.99336914 144.95410156 49.42285156 C159.08678398 60.80280874 171.66528974 73.51042354 182.38330078 88.15966797 C183.12708984 89.15869141 183.87087891 90.15771484 184.63720703 91.18701172 C218.28388286 137.95528921 232.01400711 196.61546447 223.35595703 253.52294922 C214.27414148 307.89174986 186.19672078 358.09501406 142.38330078 392.15966797 C141.83963867 392.58505859 141.29597656 393.01044922 140.73583984 393.44873047 C102.08997477 423.47004984 55.3985684 438.67711227 6.69580078 438.47216797 C5.77165375 438.47001282 4.84750671 438.46785767 3.89535522 438.46563721 C-9.78667615 438.41447616 -23.20240702 438.11312869 -36.61669922 435.15966797 C-37.54353516 434.95567383 -38.47037109 434.75167969 -39.42529297 434.54150391 C-80.48139614 425.17711384 -116.79433643 405.60853181 -147.18847656 376.52490234 C-148.46432498 375.30532212 -149.75259484 374.09876707 -151.04248047 372.89404297 C-157.64383065 366.56237494 -163.12792688 359.44771367 -168.61669922 352.15966797 C-169.03564453 351.61213867 -169.45458984 351.06460937 -169.88623047 350.50048828 C-191.62516881 321.98107156 -204.77866336 288.38491683 -210.61669922 253.15966797 C-210.73529297 252.45793457 -210.85388672 251.75620117 -210.97607422 251.03320312 C-219.73259665 196.55251816 -205.17707269 137.12111124 -173.01513672 92.46826172 C-170.6433779 89.28722664 -168.14470857 86.21800105 -165.61669922 83.15966797 C-164.77007457 82.10910464 -163.92372505 81.05831953 -163.07763672 80.00732422 C-152.48124574 67.01074401 -140.67397918 55.31875407 -127.1953125 45.33251953 C-125.74889421 44.25788398 -124.3204715 43.15913639 -122.89404297 42.05810547 C-87.05075912 14.91884681 -44.31562154 2.70408812 0 0 Z " fill="#CC0303" transform="translate(243.61669921875,32.84033203125)"/>
<path d="M0 0 C0.73182495 0.00248749 1.4636499 0.00497498 2.21765137 0.00753784 C31.92676073 0.16375209 60.80326783 8.49078827 84.9375 26.3125 C85.49002441 26.71839355 86.04254883 27.12428711 86.61181641 27.54248047 C105.55484532 41.57415814 119.91480645 58.45179491 130.9375 79.3125 C131.40671875 80.17101562 131.8759375 81.02953125 132.359375 81.9140625 C142.59240992 101.30629534 146.36796957 122.23922489 146.25 143.9375 C146.24577026 145.06183945 146.24577026 145.06183945 146.24145508 146.20889282 C146.02678743 184.2389875 132.37818414 218.71252785 105.9375 246.3125 C104.74447266 247.61767578 104.74447266 247.61767578 103.52734375 248.94921875 C82.63524795 271.03874991 53.58922561 284.13837338 23.9375 289.3125 C23.02258789 289.48450928 22.10767578 289.65651855 21.16503906 289.83374023 C-16.65683582 295.44408037 -55.20681873 284.78622181 -85.73046875 262.3515625 C-88.23515984 260.40037231 -90.657489 258.38526458 -93.0625 256.3125 C-94.01769531 255.49136719 -94.97289062 254.67023438 -95.95703125 253.82421875 C-121.27835851 231.59035952 -137.01307057 201.41180358 -142.70239258 168.37915039 C-142.98927668 166.73272739 -143.31602116 165.09326337 -143.65625 163.45703125 C-148.55072316 125.57192649 -137.82733696 87.64615258 -115.0625 57.3125 C-92.7857968 28.59933505 -62.47674947 10.00055605 -27.0625 2.3125 C-25.85315796 2.03321655 -25.85315796 2.03321655 -24.61938477 1.74829102 C-16.44874948 0.03301437 -8.31140666 -0.04500465 0 0 Z " fill="#FEFDFD" transform="translate(249.0625,104.6875)"/>
<path d="M0 0 C1.2639687 0.72051134 2.53408238 1.43044844 3.8125 2.125 C6.80041027 3.88259428 9.29995927 5.83996742 12 8 C13.70871233 8.96719566 15.41809623 9.93333796 17.13671875 10.8828125 C19.08755706 12.05249752 20.83098013 13.35255294 22.625 14.75 C27.59071174 18.55800245 32.92345314 21.72202829 38.27685547 24.95019531 C39.99909822 25.9994506 41.70612869 27.06988945 43.41015625 28.1484375 C49.46577099 31.9588711 55.3696033 35.30288948 62 38 C62 38.66 62 39.32 62 40 C63.7634375 40.0928125 63.7634375 40.0928125 65.5625 40.1875 C69.73493183 40.69436232 72.0379539 42.16300322 75.27734375 44.73828125 C77.93281562 46.68321869 80.98243585 47.7147412 84 49 C86.9375 51.0625 86.9375 51.0625 89 53 C89 53.66 89 54.32 89 55 C89.639375 55.0825 90.27875 55.165 90.9375 55.25 C93.78399007 55.94709961 95.89277549 56.89476932 98.5 58.1875 C101.94321549 59.87542853 101.94321549 59.87542853 105.625 59.25 C106.40875 58.8375 107.1925 58.425 108 58 C111.625 57.625 111.625 57.625 115 58 C116.625 59.9375 116.625 59.9375 118 62 C120.59855733 62.8042208 120.59855733 62.8042208 123 63 C123 63.99 123 64.98 123 66 C125.64 66 128.28 66 131 66 C131.12117187 66.71027344 131.24234375 67.42054688 131.3671875 68.15234375 C131.53476562 69.07144531 131.70234375 69.99054688 131.875 70.9375 C132.11863281 72.31228516 132.11863281 72.31228516 132.3671875 73.71484375 C132.68042969 74.84599609 132.68042969 74.84599609 133 76 C133.66 76.33 134.32 76.66 135 77 C135.43183594 77.73734375 135.86367188 78.4746875 136.30859375 79.234375 C138.22980246 82.3757509 140.44023341 84.67021491 143.0625 87.25 C143.94035156 88.12140625 144.81820312 88.9928125 145.72265625 89.890625 C147.81067355 92.02187738 147.81067355 92.02187738 150 93 C150 93.66 150 94.32 150 95 C150.66 95 151.32 95 152 95 C153.625 96.375 153.625 96.375 155 98 C155 98.66 155 99.32 155 100 C155.66 100 156.32 100 157 100 C158.22632018 101.4583267 159.44855845 102.92057475 160.63671875 104.41015625 C162.51503115 106.60062372 164.71216572 108.25402121 167 110 C168.8125 111.625 168.8125 111.625 170 113 C170 113.66 170 114.32 170 115 C170.556875 115.268125 171.11375 115.53625 171.6875 115.8125 C172.450625 116.204375 173.21375 116.59625 174 117 C174.845625 117.433125 175.69125 117.86625 176.5625 118.3125 C179 120 179 120 180.359375 122.32421875 C182.68711833 126.12065727 185.85561258 128.74639226 189.13671875 131.71875 C191 134 191 134 191.26953125 136.78125 C191.18058594 137.5134375 191.09164062 138.245625 191 139 C190.38125 139.226875 189.7625 139.45375 189.125 139.6875 C186.77911417 140.84019791 186.77911417 140.84019791 186.0625 143.4375 C184.6746494 146.78466908 183.17380711 147.34096447 180 149 C174.06127304 152.83542783 168.93249603 156.9304902 164 162 C163 163 163 163 159.9375 163.0625 C158.968125 163.041875 157.99875 163.02125 157 163 C157 165.31 157 167.62 157 170 C157.598125 170.061875 158.19625 170.12375 158.8125 170.1875 C161 171 161 171 162.8125 173.3125 C164 176 164 176 163.6875 178.3125 C163.460625 178.869375 163.23375 179.42625 163 180 C162.34 180 161.68 180 161 180 C161.103125 180.928125 161.20625 181.85625 161.3125 182.8125 C161.1578125 184.3903125 161.1578125 184.3903125 161 186 C158.8125 187.5625 158.8125 187.5625 156 189 C152.21272507 192.39883648 149.36840684 196.14129519 146.52734375 200.328125 C144.68267841 202.34734947 143.667583 202.58087883 141 203 C139.83210938 203.26490234 139.83210938 203.26490234 138.640625 203.53515625 C137.85171875 203.70917969 137.0628125 203.88320313 136.25 204.0625 C135.05117188 204.32740234 135.05117188 204.32740234 133.828125 204.59765625 C133.22484375 204.73042969 132.6215625 204.86320313 132 205 C131.03081646 209.70746293 130.21608177 214.42568995 129.5625 219.1875 C129 222 129 222 127 225 C121.11766586 226.09107811 115.2986409 226.09513413 109.8515625 223.5 C107.36924337 221.79296105 105.11092882 220.14983995 103 218 C103 217.34 103 216.68 103 216 C97.76528314 215.24387423 93.22745859 214.7936634 88 216 C87.79375 215.236875 87.5875 214.47375 87.375 213.6875 C86.23451933 210.75501419 86.23451933 210.75501419 83.25 209.8125 C78.36537876 207.08838431 76.6072842 202.80558265 74 198 C73.45859375 197.12472656 72.9171875 196.24945313 72.359375 195.34765625 C70.91780995 192.85805683 70.52984903 190.8006306 70 188 C67.31907309 185.31907309 65.60832637 185.61329743 61.875 185.375 C60.77929688 185.30023438 59.68359375 185.22546875 58.5546875 185.1484375 C57.29011719 185.07496094 57.29011719 185.07496094 56 185 C56 185.66 56 186.32 56 187 C55.34 187 54.68 187 54 187 C53.85304688 187.61488281 53.70609375 188.22976563 53.5546875 188.86328125 C51.69325997 195.57083906 51.69325997 195.57083906 48.375 197.625 C47.26125 198.07875 46.1475 198.5325 45 199 C38.05264884 203.37010799 33.38257095 208.48586025 30 216 C29.82984375 216.86625 29.6596875 217.7325 29.484375 218.625 C28.87352284 221.62014605 27.55675751 223.2462037 25.15625 225.1171875 C20.43560268 227.0499163 14.85190615 226.1794689 10 225 C8 222 8 222 8 219 C5.03 218.67 2.06 218.34 -1 218 C-5.97196262 205.92523364 -5.97196262 205.92523364 -5 199 C-3 196.5 -3 196.5 -1 195 C-2.15173355 192.53199953 -3.04783565 190.95216435 -5 189 C-5 187.68 -5 186.36 -5 185 C-3.02 184.67 -1.04 184.34 1 184 C0.79375 183.071875 0.5875 182.14375 0.375 181.1875 C0 178 0 178 2 175 C4.625 174.8125 4.625 174.8125 7 175 C7.33 173.35 7.66 171.7 8 170 C7.2575 170.103125 6.515 170.20625 5.75 170.3125 C3 170 3 170 1.1875 167.9375 C0.465625 166.968125 -0.25625 165.99875 -1 165 C-3.57924498 162.5622326 -6.28580576 160.28535155 -9 158 C-9.886875 157.21625 -10.77375 156.4325 -11.6875 155.625 C-14.17941822 153.87392233 -15.99755291 153.34313681 -19 153 C-19 153.66 -19 154.32 -19 155 C-22.36683915 157.43160605 -23.73350364 158 -28 158 C-29.7109375 156.171875 -29.7109375 156.171875 -31.375 153.75 C-34.2767661 149.77257923 -36.751586 147.42766514 -41 145 C-41.33 144.67 -41.66 144.34 -42 144 C-41.71184741 140.71278562 -41.39941248 137.43718713 -40.96484375 134.16601562 C-40.56108716 130.03809459 -40.56108716 130.03809459 -42.03588867 126.26733398 C-43.29637059 124.79066409 -44.64640217 123.39181233 -46 122 C-48.31433852 117.45112774 -49 115.19244388 -49 110 C-44.71 110 -40.42 110 -36 110 C-35.443125 111.258125 -34.88625 112.51625 -34.3125 113.8125 C-32.41152105 117.54185106 -31.08513124 119.54750889 -27 121 C-22.08248291 121.54639079 -17.36213344 121.56596085 -13 119 C-10.8024578 116.8024578 -10.08639309 115.50601667 -9.5625 112.4375 C-9.76242823 109.89348541 -9.76242823 109.89348541 -11.73339844 108.43481445 C-14.09549686 106.93954814 -15.99740813 106.26678826 -18.703125 105.60546875 C-20.05083984 105.25452148 -20.05083984 105.25452148 -21.42578125 104.89648438 C-23.29114204 104.42820916 -25.15832475 103.96712585 -27.02734375 103.51367188 C-34.56909698 101.52871685 -41.07334093 98.36588114 -45.5 91.6875 C-47.62137083 86.47246338 -48.23177279 82.16173938 -46.15234375 76.82421875 C-43.2794561 71.65302099 -39.40007506 68.38298767 -34 66 C-24.42542353 63.54778384 -13.75248596 64.23211283 -5.046875 69.08984375 C-3.65794048 70.00173768 -2.32083718 70.99199268 -1 72 C-0.505 70.96875 -0.01 69.9375 0.5 68.875 C2.70119761 64.96175981 5.51926972 62.94405338 9.16015625 60.421875 C11.48830212 58.62262851 12.75435554 56.64699447 14 54 C12.35 53.34 10.7 52.68 9 52 C9.0825 51.2575 9.165 50.515 9.25 49.75 C8.92394738 46.16342117 7.56920891 45.41807898 5 43 C4.690625 42.154375 4.38125 41.30875 4.0625 40.4375 C2.69275539 37.29514473 0.93450558 36.62170045 -2 35 C-2 34.34 -2 33.68 -2 33 C-3.32 32.67 -4.64 32.34 -6 32 C-6 31.34 -6 30.68 -6 30 C-7.0725 30.185625 -8.145 30.37125 -9.25 30.5625 C-12.40391546 30.9304568 -14.09818492 31.04465343 -17 30 C-17 30.66 -17 31.32 -17 32 C-17.474375 32.45375 -17.94875 32.9075 -18.4375 33.375 C-20.22093737 35.22977487 -20.5691993 36.50135592 -21 39 C-23.1875 39.8125 -23.1875 39.8125 -26 40 C-28.8125 37.6875 -28.8125 37.6875 -31 35 C-31 34.34 -31 33.68 -31 33 C-31.66 33 -32.32 33 -33 33 C-33.41713515 31.56853622 -33.8080497 30.12941114 -34.1875 28.6875 C-34.40792969 27.88699219 -34.62835938 27.08648437 -34.85546875 26.26171875 C-35 24 -35 24 -33.75 22.1875 C-32 21 -32 21 -28.8125 21.3125 C-27.884375 21.539375 -26.95625 21.76625 -26 22 C-25.7834375 21.1028125 -25.7834375 21.1028125 -25.5625 20.1875 C-25.1127561 18.43849596 -24.57107659 16.71322977 -24 15 C-25.8871875 15.12375 -25.8871875 15.12375 -27.8125 15.25 C-31.70535714 15.25 -31.70535714 15.25 -34.0625 13.25 C-35.18661541 10.55212302 -35.08680468 9.67521153 -34 7 C-32.15234375 5.734375 -32.15234375 5.734375 -29.9375 4.75 C-28.83728516 4.24726563 -28.83728516 4.24726563 -27.71484375 3.734375 C-27.14894531 3.49203125 -26.58304688 3.2496875 -26 3 C-26.04125 1.88625 -26.0825 0.7725 -26.125 -0.375 C-26 -4 -26 -4 -24 -6 C-14.87357721 -9.12628525 -7.44396191 -4.9751732 0 0 Z " fill="#FEC80F" transform="translate(193,140)"/>
<path d="M0 0 C5.15565339 -0.26911684 10.23186887 -0.14756297 15.38330078 0.15966797 C16.46417969 0.21864258 17.54505859 0.27761719 18.65869141 0.33837891 C45.80560497 1.97417311 71.53032413 7.79589742 96.38330078 19.15966797 C97.42067383 19.63073975 97.42067383 19.63073975 98.47900391 20.11132812 C114.60249972 27.54553787 129.65502097 36.9147203 143.38330078 48.15966797 C143.90166504 48.57651855 144.4200293 48.99336914 144.95410156 49.42285156 C159.08678398 60.80280874 171.66528974 73.51042354 182.38330078 88.15966797 C183.12708984 89.15869141 183.87087891 90.15771484 184.63720703 91.18701172 C218.28388286 137.95528921 232.01400711 196.61546447 223.35595703 253.52294922 C214.27414148 307.89174986 186.19672078 358.09501406 142.38330078 392.15966797 C141.83963867 392.58505859 141.29597656 393.01044922 140.73583984 393.44873047 C102.08997477 423.47004984 55.3985684 438.67711227 6.69580078 438.47216797 C5.77165375 438.47001282 4.84750671 438.46785767 3.89535522 438.46563721 C-9.78667615 438.41447616 -23.20240702 438.11312869 -36.61669922 435.15966797 C-37.54353516 434.95567383 -38.47037109 434.75167969 -39.42529297 434.54150391 C-80.48139614 425.17711384 -116.79433643 405.60853181 -147.18847656 376.52490234 C-148.46432498 375.30532212 -149.75259484 374.09876707 -151.04248047 372.89404297 C-157.64383065 366.56237494 -163.12792688 359.44771367 -168.61669922 352.15966797 C-169.03564453 351.61213867 -169.45458984 351.06460937 -169.88623047 350.50048828 C-191.62516881 321.98107156 -204.77866336 288.38491683 -210.61669922 253.15966797 C-210.73529297 252.45793457 -210.85388672 251.75620117 -210.97607422 251.03320312 C-219.73259665 196.55251816 -205.17707269 137.12111124 -173.01513672 92.46826172 C-170.6433779 89.28722664 -168.14470857 86.21800105 -165.61669922 83.15966797 C-164.77007457 82.10910464 -163.92372505 81.05831953 -163.07763672 80.00732422 C-152.48124574 67.01074401 -140.67397918 55.31875407 -127.1953125 45.33251953 C-125.74889421 44.25788398 -124.3204715 43.15913639 -122.89404297 42.05810547 C-87.05075912 14.91884681 -44.31562154 2.70408812 0 0 Z M-139.61669922 70.15966797 C-141.00695312 71.47064453 -141.00695312 71.47064453 -142.42529297 72.80810547 C-149.57493235 79.7244942 -155.70790744 87.17384635 -161.61669922 95.15966797 C-162.01630859 95.69849609 -162.41591797 96.23732422 -162.82763672 96.79248047 C-182.52619171 123.63010909 -195.60054554 155.2808469 -200.61669922 188.15966797 C-200.78661377 189.24844238 -200.95652832 190.3372168 -201.1315918 191.45898438 C-202.43785873 200.40775731 -202.96903088 209.10922276 -202.92919922 218.15966797 C-202.9273764 218.82609314 -202.92555359 219.49251831 -202.92367554 220.17913818 C-202.86670339 232.67106953 -201.9001692 244.86702569 -199.61669922 257.15966797 C-199.45572754 258.02672363 -199.29475586 258.8937793 -199.12890625 259.78710938 C-195.13431547 280.30495464 -187.49022535 299.78687524 -177.61669922 318.15966797 C-176.88386719 319.60792969 -176.88386719 319.60792969 -176.13623047 321.08544922 C-167.65378036 337.50386105 -155.23660077 351.80726048 -142.61669922 365.15966797 C-141.81361328 366.01689453 -141.01052734 366.87412109 -140.18310547 367.75732422 C-133.54652022 374.63365474 -126.27359231 380.47600365 -118.61669922 386.15966797 C-118.0764209 386.56072754 -117.53614258 386.96178711 -116.97949219 387.375 C-94.7934709 403.65750346 -69.70226735 414.85995466 -43.05419922 421.40966797 C-42.06226563 421.65604004 -41.07033203 421.90241211 -40.04833984 422.15625 C-25.21711128 425.6514923 -10.65934043 426.53956001 4.50830078 426.47216797 C5.36291901 426.47034515 6.21753723 426.46852234 7.09805298 426.46664429 C29.57587446 426.38609931 53.11179607 424.42099358 73.95361328 415.22607422 C75.7779827 414.42534616 77.63326047 413.69445741 79.50048828 412.99951172 C114.7098422 399.78637343 146.75497313 376.34395818 169.38330078 346.15966797 C169.83769531 345.55461426 170.29208984 344.94956055 170.76025391 344.32617188 C193.20716173 314.18254763 206.27708577 280.28790935 211.38330078 243.15966797 C211.48860107 242.42127686 211.59390137 241.68288574 211.70239258 240.92211914 C214.00328977 223.0160259 213.02075728 203.98946908 210.38330078 186.15966797 C210.27034668 185.38349121 210.15739258 184.60731445 210.04101562 183.80761719 C204.74969285 149.41756087 189.67462308 115.87110738 167.38330078 89.15966797 C166.67173828 88.29801025 166.67173828 88.29801025 165.94580078 87.41894531 C156.37328972 75.86774138 146.27794725 65.36842652 134.38330078 56.15966797 C133.55403076 55.51578125 133.55403076 55.51578125 132.70800781 54.85888672 C105.64181688 33.99364206 74.87793843 20.69899634 41.38330078 14.15966797 C40.19865234 13.92505859 39.01400391 13.69044922 37.79345703 13.44873047 C-26.53296488 1.78375514 -93.0608256 25.63893759 -139.61669922 70.15966797 Z " fill="#CC0202" transform="translate(243.61669921875,32.84033203125)"/>
<path d="M0 0 C0.72413086 0.10715332 1.44826172 0.21430664 2.19433594 0.32470703 C12.02952889 1.82155629 21.51561285 3.95004148 31 7 C31.73025391 7.23170898 32.46050781 7.46341797 33.21289062 7.70214844 C86.33148693 24.7430854 130.01485799 61.51031815 156 111 C168.67588836 136.4019893 177.00131155 164.54029939 178 193 C178.03399902 193.95406738 178.06799805 194.90813477 178.10302734 195.89111328 C179.85131566 254.17034868 160.10356766 307.42713932 120.19921875 349.91748047 C111.75871683 358.80444051 102.93456405 366.819931 93 374 C92.43941895 374.41024414 91.87883789 374.82048828 91.30126953 375.24316406 C68.98456794 391.40022575 43.54411396 402.11881927 16.875 408.5625 C15.64136719 408.87477539 15.64136719 408.87477539 14.3828125 409.19335938 C-0.05829572 412.68329386 -14.40563692 413.37963154 -29.1875 413.3125 C-30.04472656 413.31034485 -30.90195313 413.3081897 -31.78515625 413.30596924 C-44.72714527 413.25383241 -57.32377222 412.83533793 -70 410 C-71.35738281 409.70198486 -71.35738281 409.70198486 -72.7421875 409.39794922 C-121.17372678 398.44671193 -164.77379508 371.51111589 -194.75390625 331.65625 C-195.88825083 330.14853181 -197.03710783 328.65175982 -198.1875 327.15625 C-203.46630462 320.14533761 -207.84689481 312.71349159 -212 305 C-212.32468262 304.40654785 -212.64936523 303.8130957 -212.98388672 303.20166016 C-223.02293255 284.70762898 -230.16035512 264.6818109 -234 244 C-234.16226074 243.12649902 -234.32452148 242.25299805 -234.49169922 241.35302734 C-238.97110829 215.93272759 -238.24373276 190.21746287 -233 165 C-232.8345166 164.18337891 -232.6690332 163.36675781 -232.49853516 162.52539062 C-225.53029001 128.74254261 -209.54993102 97.04415457 -187 71 C-185.94232422 69.77603516 -185.94232422 69.77603516 -184.86328125 68.52734375 C-182.6141962 65.97945746 -180.32115155 63.48239472 -178 61 C-176.69482422 59.59621094 -176.69482422 59.59621094 -175.36328125 58.1640625 C-148.92546273 30.38895818 -112.99632626 12.4458015 -76.08642578 3.51123047 C-74.25876451 3.06340427 -72.43910895 2.58316089 -70.62109375 2.09765625 C-47.87788637 -3.74063836 -23.09374069 -3.46248006 0 0 Z M-75 11 C-75.94746094 11.24137695 -76.89492187 11.48275391 -77.87109375 11.73144531 C-122.97294742 23.63581904 -163.45349505 50.14960194 -191 88 C-191.41314453 88.56348145 -191.82628906 89.12696289 -192.25195312 89.70751953 C-222.98757519 132.16992608 -234.67562297 184.36773854 -227.57861328 236.06982422 C-221.5616263 272.47830585 -206.406866 307.15114007 -182 335 C-181.29617187 335.81339844 -180.59234375 336.62679688 -179.8671875 337.46484375 C-177.61787622 340.01648182 -175.32317236 342.5154441 -173 345 C-171.69482422 346.40378906 -171.69482422 346.40378906 -170.36328125 347.8359375 C-147.09703086 372.27904847 -115.7046032 389.62325089 -83.4375 398.8125 C-82.47021973 399.09037354 -81.50293945 399.36824707 -80.50634766 399.65454102 C-65.01676966 403.87139068 -49.96856022 405.49964601 -33.94189453 405.39111328 C-31.13394324 405.37505116 -28.32743904 405.39105484 -25.51953125 405.41015625 C12.44409844 405.45473153 52.19743312 393.51468197 83 371 C84.45212891 369.95585938 84.45212891 369.95585938 85.93359375 368.890625 C101.03336256 357.81615217 114.38720944 345.74081495 126 331 C126.40895508 330.48920898 126.81791016 329.97841797 127.23925781 329.45214844 C137.27812465 316.909361 145.15150532 303.50939801 152 289 C152.52464844 287.89269531 153.04929687 286.78539062 153.58984375 285.64453125 C161.7906349 267.43746972 166.29773841 248.72574195 169 229 C169.19335938 227.69546875 169.38671875 226.3909375 169.5859375 225.046875 C172.45646059 201.14203265 169.67075081 175.08453207 163 152 C162.81131348 151.32195312 162.62262695 150.64390625 162.42822266 149.9453125 C148.09457595 99.41950135 112.28907423 56.75514515 67 31 C47.34580071 20.45988147 26.93789279 13.02446861 5 9 C3.98808594 8.81308594 2.97617187 8.62617187 1.93359375 8.43359375 C-8.49119383 6.72060049 -18.83212888 6.60069658 -29.375 6.625 C-30.30341705 6.62587616 -31.23183411 6.62675232 -32.18838501 6.62765503 C-46.77331467 6.67300784 -60.80561058 7.3685157 -75 11 Z " fill="#FDF6F6" transform="translate(278,46)"/>
<path d="M0 0 C8.49996302 4.96992373 15.56676364 12.72208746 19 22 C19.57573676 25.1258161 19.66773929 28.13918837 19.625 31.3125 C19.61879639 32.14483154 19.61259277 32.97716309 19.60620117 33.8347168 C19.35655104 41.06191236 17.38961485 46.20654651 13 52 C12.59394531 52.59941406 12.18789063 53.19882812 11.76953125 53.81640625 C6.58487094 60.87674572 -1.62123558 64.39872502 -10 66 C-19.57373861 66.9998325 -28.02775252 65.50354275 -35.8125 59.6875 C-44.46959678 52.32364263 -48.59173508 44.46085563 -50.48828125 33.06640625 C-50.98121087 23.36273466 -47.01868234 14.99981567 -40.9375 7.625 C-29.82743037 -3.74173791 -14.60095749 -6.75262432 0 0 Z " fill="#FCF6F6" transform="translate(268,209)"/>
<path d="M0 0 C3.58660071 2.73180889 5.61126397 5.70327586 7.15234375 9.8984375 C7.15234375 11.8784375 7.15234375 13.8584375 7.15234375 15.8984375 C2.86234375 15.8984375 -1.42765625 15.8984375 -5.84765625 15.8984375 C-6.26015625 14.9496875 -6.67265625 14.0009375 -7.09765625 13.0234375 C-8.95461928 9.70743209 -9.45007152 9.17177743 -12.84765625 7.8984375 C-17.46489439 7.32034427 -21.61162993 7.4287475 -25.97265625 9.0859375 C-28.05931576 10.77123233 -28.05931576 10.77123233 -28.41015625 13.3984375 C-28.07898407 15.98776827 -28.07898407 15.98776827 -26.13378906 17.45605469 C-23.65403432 19.02059879 -21.53897944 19.73659194 -18.70703125 20.4765625 C-17.22396484 20.88841797 -17.22396484 20.88841797 -15.7109375 21.30859375 C-13.65388335 21.86350798 -11.59398235 22.40798629 -9.53125 22.94140625 C-2.0918712 25.03523919 4.32755707 28.02052164 8.34545898 34.95874023 C10.43602501 39.9843218 9.90814888 46.74955208 7.96484375 51.7734375 C5.03746688 56.820639 1.40358631 60.33685576 -3.84765625 62.8984375 C-13.79142035 64.95977254 -24.90285572 65.73501298 -33.86328125 60.3828125 C-38.99406478 56.54482482 -41.74645351 51.98086647 -43.84765625 45.8984375 C-43.84765625 44.2484375 -43.84765625 42.5984375 -43.84765625 40.8984375 C-39.55765625 40.8984375 -35.26765625 40.8984375 -30.84765625 40.8984375 C-30.29078125 42.1565625 -29.73390625 43.4146875 -29.16015625 44.7109375 C-27.2591773 48.44028856 -25.93278749 50.44594639 -21.84765625 51.8984375 C-16.93013916 52.44482829 -12.20978969 52.46439835 -7.84765625 49.8984375 C-5.65011405 47.7008953 -4.93404934 46.40445417 -4.41015625 43.3359375 C-4.61008448 40.79192291 -4.61008448 40.79192291 -6.58105469 39.33325195 C-8.94315311 37.83798564 -10.84506438 37.16522576 -13.55078125 36.50390625 C-14.89849609 36.15295898 -14.89849609 36.15295898 -16.2734375 35.79492188 C-18.13879829 35.32664666 -20.005981 34.86556335 -21.875 34.41210938 C-29.41675323 32.42715435 -35.92099718 29.26431864 -40.34765625 22.5859375 C-42.46902708 17.37090088 -43.07942904 13.06017688 -41 7.72265625 C-38.12711235 2.55145849 -34.24773131 -0.71857483 -28.84765625 -3.1015625 C-19.42552268 -5.51473537 -8.48348046 -5.05780442 0 0 Z " fill="#050404" transform="translate(187.84765625,209.1015625)"/>
<path d="M0 0 C9.57773405 5.82031531 17.95021253 13.49659555 21.8828125 24.27734375 C22.80617865 28.87218961 22.9344567 33.36472792 22.9765625 38.04296875 C22.98679443 38.92114258 22.99702637 39.79931641 23.00756836 40.70410156 C22.86112017 51.69488484 19.80877687 59.39115515 12.5390625 67.54296875 C12.02601563 68.17203125 11.51296875 68.80109375 10.984375 69.44921875 C4.48967056 76.81634618 -5.68653571 81.14236605 -15.40234375 81.81640625 C-28.40003989 82.22077902 -37.23989635 79.8606462 -47.46484375 71.421875 C-55.89882182 63.48304241 -61.40397626 53.44584207 -61.95703125 41.89160156 C-62.30106322 28.42882117 -58.83293044 17.91981826 -49.5859375 7.91796875 C-36.12309377 -4.06078197 -16.59022652 -8.34184629 0 0 Z M-45.9296875 15.41015625 C-52.16110372 24.08962884 -55.5656405 32.89414568 -54.4609375 43.54296875 C-51.81037837 54.70256582 -47.00171682 62.99498811 -37.4609375 69.48046875 C-29.40319056 74.01784082 -20.36432277 74.85649063 -11.37109375 72.85546875 C0.66064122 69.21408616 6.46307568 63.41405869 12.5390625 52.54296875 C12.89049316 51.91543701 13.24192383 51.28790527 13.60400391 50.64135742 C16.63986551 43.82850352 15.63717061 33.0714485 13.4765625 26.12890625 C8.41229507 16.3581729 0.81563411 9.44907183 -9.4609375 5.54296875 C-23.07294913 2.11772399 -36.27632174 4.85770251 -45.9296875 15.41015625 Z " fill="#C10904" transform="translate(272.4609375,201.45703125)"/>
<path d="M0 0 C2.784375 -0.020625 5.56875 -0.04125 8.4375 -0.0625 C9.75512329 -0.07615601 9.75512329 -0.07615601 11.09936523 -0.09008789 C13.06645974 -0.09723091 15.03353621 -0.05031893 17 0 C18 1 18 1 18.09765625 4.59765625 C18.0909822 6.08596867 18.07902183 7.57426432 18.0625 9.0625 C18.05798828 9.82111328 18.05347656 10.57972656 18.04882812 11.36132812 C18.0370068 13.24091871 18.01907078 15.12046899 18 17 C19.14339844 16.98839844 20.28679687 16.97679687 21.46484375 16.96484375 C22.95572754 16.95546712 24.44661309 16.94636679 25.9375 16.9375 C26.69224609 16.92912109 27.44699219 16.92074219 28.22460938 16.91210938 C30.14994313 16.90347559 32.07535581 16.94775667 34 17 C35.82116003 18.82116003 35.1323508 21.30671764 35.13671875 23.7265625 C35.13285156 24.47679687 35.12898438 25.22703125 35.125 26 C35.13080078 27.12535156 35.13080078 27.12535156 35.13671875 28.2734375 C35.12661053 33.87338947 35.12661053 33.87338947 34 35 C31.13530675 35.07330331 28.30106326 35.09217831 25.4375 35.0625 C21.2609375 35.0315625 21.2609375 35.0315625 17 35 C17 40.61 17 46.22 17 52 C11.39 52 5.78 52 0 52 C0 46.39 0 40.78 0 35 C-5.61 35 -11.22 35 -17 35 C-17 29.06 -17 23.12 -17 17 C-11.39 17 -5.78 17 0 17 C0 11.39 0 5.78 0 0 Z " fill="#C10909" transform="translate(244,214)"/>
<path d="M0 0 C4.29 0 8.58 0 13 0 C13 18.15 13 36.3 13 55 C23.89 55 34.78 55 46 55 C46 58.63 46 62.26 46 66 C30.82 66 15.64 66 0 66 C0 44.22 0 22.44 0 0 Z " fill="#000000" transform="translate(311,206)"/>
<path d="M0 0 C4.90035276 2.17793456 7.18646692 5.07455734 9.30859375 9.8515625 C10.83244551 14.58669507 10.51322424 18.5173522 8.875 23.25 C6.05511626 27.38582949 2.70505988 29.43164671 -2 31 C-6.05573664 31.38261666 -8.47786091 31.24571251 -12.1875 29.5 C-16.51751756 25.6510955 -18.54538839 21.99533815 -19.41796875 16.24609375 C-19.64754784 11.68553622 -19.65768954 8.11937313 -16.75 4.4375 C-11.45229207 -0.25819566 -6.93893699 -0.85638779 0 0 Z " fill="#FBF3F3" transform="translate(204,70)"/>
<path d="M0 0 C4.86965363 2.20425609 8.04381846 4.72296495 10.8125 9.30859375 C11.76081077 13.90748138 11.31812235 17.93176879 9.1875 22.12109375 C6.58890689 25.60867924 4.73230203 27.42407354 0.8125 29.30859375 C-5.21468442 30.18350762 -8.46326696 29.12711732 -13.42578125 25.67578125 C-16.74060748 23.1032997 -18.84678289 21.33074508 -20.1875 17.30859375 C-20.94696887 10.85310836 -19.0199591 7.2551398 -15.1875 2.30859375 C-11.29836401 -2.1361331 -5.29212234 -1.67268867 0 0 Z " fill="#FBF3F3" transform="translate(99.1875,155.69140625)"/>
<path d="M0 0 C2.10638096 1.84308334 3.09381017 3.11381141 4 5.75 C4 6.74 4 7.73 4 8.75 C4.62648437 8.72679687 5.25296875 8.70359375 5.8984375 8.6796875 C6.71570313 8.66164062 7.53296875 8.64359375 8.375 8.625 C9.18710938 8.60179687 9.99921875 8.57859375 10.8359375 8.5546875 C13 8.75 13 8.75 15 10.75 C15.2475 11.45125 15.495 12.1525 15.75 12.875 C16.90038509 15.5208857 18.04471293 17.19950869 19.8125 19.4375 C23.19922776 23.80612917 28 30.02686098 28 35.75 C28.66 35.75 29.32 35.75 30 35.75 C30.29003906 36.85408203 30.29003906 36.85408203 30.5859375 37.98046875 C30.84632813 38.95628906 31.10671875 39.93210937 31.375 40.9375 C31.63023437 41.90042969 31.88546875 42.86335938 32.1484375 43.85546875 C32.94766296 46.57210207 33.9031362 49.14137175 35 51.75 C32.8125 52.5625 32.8125 52.5625 30 52.75 C27.43588292 50.59381063 25.50450187 48.75900373 24 45.75 C21.36 46.08 18.72 46.41 16 46.75 C16.33 45.821875 16.66 44.89375 17 43.9375 C18.7623842 37.65421721 19.21935513 31.23387156 16.3125 25.3125 C10.72806934 19.12434711 5.37432115 17.40290428 -2.5 15.25 C-15.25333158 11.76313406 -15.25333158 11.76313406 -19 7.75 C-19.5 5.1875 -19.5 5.1875 -19 2.75 C-14.77742854 -2.88009527 -5.95181762 -2.47992401 0 0 Z " fill="#F9F8F7" transform="translate(178,217.25)"/>
<path d="M0 0 C4.37269907 1.53082359 8.17129781 4.62384562 10.25390625 8.7890625 C10.65892211 14.05426868 10.07531765 17.31372028 7.25390625 21.7890625 C3.62031357 25.87685426 1.48667631 27.53143519 -3.99609375 28.1640625 C-8.77698626 27.68597325 -11.28622126 26.01515982 -14.74609375 22.7890625 C-17.11592775 19.80101093 -17.17054924 16.58009429 -17.05859375 12.80859375 C-16.33301799 8.11956038 -13.1425422 5.22238987 -10.05859375 1.8515625 C-6.19930244 -0.55139247 -4.37612015 -0.75526947 0 0 Z " fill="#FCF1F1" transform="translate(166.74609375,386.2109375)"/>
<path d="M0 0 C2.955699 2.04625315 3.80632018 3.28984065 4.75 6.75 C4.87375 7.86375 4.87375 7.86375 5 9 C5.9590625 8.2884375 5.9590625 8.2884375 6.9375 7.5625 C10.92181519 5.52968613 14.58494074 5.2789471 19 5 C18.67 6.98 18.34 8.96 18 11 C17.08476563 11.26554688 16.16953125 11.53109375 15.2265625 11.8046875 C14.03804687 12.15789062 12.84953125 12.51109375 11.625 12.875 C10.44164063 13.22304687 9.25828125 13.57109375 8.0390625 13.9296875 C4.93508442 14.77687419 4.93508442 14.77687419 3 17 C3 17.99 3 18.98 3 20 C7.95 21.98 7.95 21.98 13 24 C12.67 25.65 12.34 27.3 12 29 C4.96668709 28.49199876 -0.96772133 26.88090663 -7.5625 24.4375 C-8.47580078 24.10814453 -9.38910156 23.77878906 -10.33007812 23.43945312 C-12.55674182 22.63505629 -14.77972744 21.82183701 -17 21 C-15.973968 16.06243293 -14.93473012 11.26187279 -13.0625 6.5625 C-12.58490234 5.32693359 -12.58490234 5.32693359 -12.09765625 4.06640625 C-9.52159915 -0.78318167 -4.90272059 -0.8006459 0 0 Z " fill="#FBF0F0" transform="translate(81,186)"/>
<path d="M0 0 C2.5625 2 2.5625 2 4 5 C4.01616823 7.81866145 3.55025937 10.20284822 3 13 C3 13.66 3 14.32 3 15 C6.63 16.98 10.26 18.96 14 21 C14 21.66 14 22.32 14 23 C11.73468205 24.4263113 10.38911 25.02103297 7.6875 24.875 C5 24 5 24 1.625 21.9375 C-1.95176082 19.75999946 -4.80800419 19.65779626 -9 20 C-8.62746094 20.60328125 -8.25492188 21.2065625 -7.87109375 21.828125 C-7.39800781 22.62734375 -6.92492187 23.4265625 -6.4375 24.25 C-5.96183594 25.03890625 -5.48617187 25.8278125 -4.99609375 26.640625 C-3.86977849 29.30844625 -3.9830687 30.34501768 -5 33 C-6.98 33.495 -6.98 33.495 -9 34 C-10.99014023 30.44352499 -12.9651423 26.87886302 -14.9375 23.3125 C-15.50146484 22.30509766 -16.06542969 21.29769531 -16.64648438 20.25976562 C-17.18466797 19.28330078 -17.72285156 18.30683594 -18.27734375 17.30078125 C-18.77484131 16.40528564 -19.27233887 15.50979004 -19.78491211 14.5871582 C-20.98580573 12.03022237 -21.57682415 9.78243602 -22 7 C-6.61550889 -1.47011309 -6.61550889 -1.47011309 0 0 Z " fill="#FCF4F4" transform="translate(174,82)"/>
<path d="M0 0 C0.86328125 2.55078125 0.86328125 2.55078125 1 6 C-0.56767222 8.72997729 -2.65570647 10.90912849 -4.8125 13.1875 C-5.92420378 14.4092228 -7.03491894 15.63184609 -8.14453125 16.85546875 C-8.64315674 17.38809326 -9.14178223 17.92071777 -9.65551758 18.46948242 C-11.20825562 20.16896313 -11.20825562 20.16896313 -13 23 C-11.87980469 22.55527344 -10.75960938 22.11054688 -9.60546875 21.65234375 C-8.1330028 21.08023914 -6.66033597 20.50865135 -5.1875 19.9375 C-4.44951172 19.64294922 -3.71152344 19.34839844 -2.95117188 19.04492188 C2.66015625 16.88671875 2.66015625 16.88671875 6 18 C6 19.65 6 21.3 6 23 C2.83816984 24.15948829 -0.33019259 25.30001995 -3.5 26.4375 C-4.8303125 26.92573242 -4.8303125 26.92573242 -6.1875 27.42382812 C-11.50927477 29.32166692 -16.36551846 30.53265398 -22 31 C-22.83203125 28.41796875 -22.83203125 28.41796875 -23 25 C-21.59256853 22.44232885 -19.68168846 20.42933228 -17.6875 18.3125 C-16.66959173 17.18447838 -15.65263001 16.05560173 -14.63671875 14.92578125 C-13.76660156 13.96027344 -12.89648438 12.99476563 -12 12 C-11.34 11.01 -10.68 10.02 -10 9 C-11.04800781 9.3609375 -12.09601563 9.721875 -13.17578125 10.09375 C-14.55460651 10.56273818 -15.93351725 11.0314751 -17.3125 11.5 C-18.00279297 11.73847656 -18.69308594 11.97695312 -19.40429688 12.22265625 C-22.38931489 13.23208263 -24.82658914 14 -28 14 C-28.33 12.35 -28.66 10.7 -29 9 C-24.73178646 7.49247107 -20.46002191 5.99527041 -16.1875 4.5 C-14.97255859 4.07074219 -13.75761719 3.64148438 -12.50585938 3.19921875 C-11.34248047 2.79316406 -10.17910156 2.38710937 -8.98046875 1.96875 C-7.90692139 1.59169922 -6.83337402 1.21464844 -5.72729492 0.82617188 C-3 0 -3 0 0 0 Z " fill="#FBF3F3" transform="translate(430,184)"/>
<path d="M0 0 C2 0.75 2 0.75 5 2.75 C3.69001796 8.17793485 2.20181188 13.49562712 0.5 18.8125 C-1.07834374 23.77232564 -2.59241134 28.73872372 -4 33.75 C-6 32.75 -8 31.75 -10 30.75 C-9.690625 29.55375 -9.38125 28.3575 -9.0625 27.125 C-8.66677147 24.93477428 -8.66677147 24.93477428 -9 22.75 C-10.99903332 20.24859182 -13.33601171 18.50384765 -16 16.75 C-16.721875 17.100625 -17.44375 17.45125 -18.1875 17.8125 C-21.3632425 18.87108083 -22.86522663 18.85140686 -26 17.75 C-26.66 16.76 -27.32 15.77 -28 14.75 C-27.31897217 14.36666504 -26.63794434 13.98333008 -25.9362793 13.58837891 C-22.85267067 11.85179406 -19.77007527 10.11341842 -16.6875 8.375 C-15.61564453 7.77171875 -14.54378906 7.1684375 -13.43945312 6.546875 C-12.41142578 5.96679688 -11.38339844 5.38671875 -10.32421875 4.7890625 C-9.37635498 4.25490723 -8.42849121 3.72075195 -7.4519043 3.17041016 C-1.6279004 -0.20348755 -1.6279004 -0.20348755 0 0 Z " fill="#FBF2F2" transform="translate(369,104.25)"/>
<path d="M0 0 C2.31 0.33 4.62 0.66 7 1 C8.34949906 7.43607243 9.52713087 13.89203391 10.625 20.375 C10.76010986 21.15987793 10.89521973 21.94475586 11.03442383 22.75341797 C11.15970459 23.50252441 11.28498535 24.25163086 11.4140625 25.0234375 C11.5270166 25.69294434 11.6399707 26.36245117 11.75634766 27.05224609 C12 29 12 29 12 33 C9.69 32.34 7.38 31.68 5 31 C5 28.69 5 26.38 5 24 C0.71 23.34 -3.58 22.68 -8 22 C-8.99 24.475 -8.99 24.475 -10 27 C-12.31 27 -14.62 27 -17 27 C-15.61624948 23.16598382 -13.83573405 20.05008918 -11.5234375 16.69921875 C-10.853125 15.72275391 -10.1828125 14.74628906 -9.4921875 13.74023438 C-8.44417969 12.22913086 -8.44417969 12.22913086 -7.375 10.6875 C-6.31539063 9.14739258 -6.31539063 9.14739258 -5.234375 7.57617188 C-3.49388988 5.04776444 -1.74898214 2.52253376 0 0 Z " fill="#FBF1F1" transform="translate(288,67)"/>
<path d="M0 0 C6.66691848 0.59501909 12.90414462 1.81237006 19.375 3.5 C20.70724609 3.83837891 20.70724609 3.83837891 22.06640625 4.18359375 C25.41720697 5.04030377 28.71768216 5.90589405 32 7 C32 9.31 32 11.62 32 14 C28.17459185 16.13892158 24.34766644 18.27509443 20.51928711 20.40869141 C19.21612776 21.13546898 17.91339205 21.8630067 16.61108398 22.59130859 C14.74312436 23.63577442 12.87367675 24.67753026 11.00390625 25.71875 C9.87799072 26.34716797 8.7520752 26.97558594 7.59204102 27.62304688 C5 29 5 29 4 29 C4 26.69 4 24.38 4 22 C5.65 21.34 7.3 20.68 9 20 C8.67 15.71 8.34 11.42 8 7 C5.69 6.67 3.38 6.34 1 6 C0.67 4.02 0.34 2.04 0 0 Z " fill="#FBF2F2" transform="translate(409,218)"/>
<path d="M0 0 C1.30078125 2.61328125 1.30078125 2.61328125 2 6 C0.47530788 8.44893848 -0.85003687 10.14562543 -2.8125 12.1875 C-3.83696246 13.31938566 -4.86038229 14.45221578 -5.8828125 15.5859375 C-6.40391602 16.15151367 -6.92501953 16.71708984 -7.46191406 17.29980469 C-9.8064661 19.89146507 -11.98975559 22.59516106 -14.1875 25.3125 C-14.92355469 26.21613281 -15.65960938 27.11976563 -16.41796875 28.05078125 C-16.94003906 28.69402344 -17.46210938 29.33726562 -18 30 C-21.0234375 26.25 -21.0234375 26.25 -20.8125 24 C-20 22 -20 22 -18.86328125 20.13671875 C-17.79479756 18.0462545 -17.79479756 18.0462545 -18.3984375 15.89453125 C-19.44439067 13.66455909 -20.37422823 11.85984886 -22 10 C-24.84357039 8.97826083 -26.91893882 9 -30 9 C-30.66 7.35 -31.32 5.7 -32 4 C-21.35997499 1.87733504 -10.8981153 -0.0967861 0 0 Z " fill="#FCF4F4" transform="translate(419,161)"/>
<path d="M0 0 C1.32 1.32 2.64 2.64 4 4 C2.38050958 5.50594681 0.75424026 7.00460668 -0.875 8.5 C-1.77992188 9.3353125 -2.68484375 10.170625 -3.6171875 11.03125 C-6 13 -6 13 -8 13 C-6.35 14.65 -4.7 16.3 -3 18 C0.3 15.03 3.6 12.06 7 9 C7.99 9.66 8.98 10.32 10 11 C9.46324097 14.85103301 7.88399077 16.31797587 4.9375 18.75 C4.20402344 19.36359375 3.47054687 19.9771875 2.71484375 20.609375 C2.14894531 21.06828125 1.58304688 21.5271875 1 22 C1.79117904 23.99983534 1.79117904 23.99983534 3 26 C3.99 26.33 4.98 26.66 6 27 C8.82351023 25.11152552 8.82351023 25.11152552 11.6875 22.5625 C12.68136719 21.71816406 13.67523438 20.87382813 14.69921875 20.00390625 C15.45847656 19.34261719 16.21773437 18.68132812 17 18 C17.99 18.66 18.98 19.32 20 20 C19.42962691 23.34294494 18.50702993 24.82028676 15.9453125 27.015625 C15.33042969 27.54414063 14.71554688 28.07265625 14.08203125 28.6171875 C13.43621094 29.15601563 12.79039062 29.69484375 12.125 30.25 C11.48691406 30.80429688 10.84882813 31.35859375 10.19140625 31.9296875 C5.38923953 36 5.38923953 36 2 36 C0.0546875 33.9453125 0.0546875 33.9453125 -2.125 31.125 C-6.53702502 25.53933286 -11.1889644 20.24323265 -16 15 C-11.30217584 9.06590633 -6.01350104 4.57548992 0 0 Z " fill="#FBF1F1" transform="translate(132,103)"/>
<path d="M0 0 C3.125 1.125 3.125 1.125 5 3 C5.8125 6.1875 5.8125 6.1875 6 9 C3.125 9.1875 3.125 9.1875 0 9 C-0.66 8.01 -1.32 7.02 -2 6 C-3.96361864 5.42251197 -3.96361864 5.42251197 -6.125 5.3125 C-8.043125 5.1578125 -8.043125 5.1578125 -10 5 C-9.95379056 6.94148357 -9.95379056 6.94148357 -9 9 C-6.33511856 10.4798267 -6.33511856 10.4798267 -3.125 11.5625 C3.95027001 14.16244862 3.95027001 14.16244862 6 17 C6.61107924 21.73586411 6.65852455 23.87110078 4.25 28 C-0.70569033 31.04965559 -5.33669209 30.94898673 -11 30 C-13.9887012 28.67418518 -14.86579267 27.65333884 -17 25 C-17.875 21.6875 -17.875 21.6875 -18 19 C-15.1875 18.6875 -15.1875 18.6875 -12 19 C-11.566875 19.825 -11.13375 20.65 -10.6875 21.5 C-10.130625 22.325 -9.57375 23.15 -9 24 C-5.96364174 24.46252769 -3.04928471 24.28766837 0 24 C0 22.35 0 20.7 0 19 C-1.10408203 18.76216797 -1.10408203 18.76216797 -2.23046875 18.51953125 C-12.60098161 16.03992382 -12.60098161 16.03992382 -16 11 C-16.82630866 7.03371841 -16.34663968 5.54984225 -14.1875 2.125 C-9.53167656 -0.97888229 -5.43977718 -0.73510502 0 0 Z " fill="#FBF1F1" transform="translate(264,63)"/>
<path d="M0 0 C3.1875 2.3125 3.1875 2.3125 5 5 C5 5.99 5 6.98 5 8 C2.125 8.125 2.125 8.125 -1 8 C-1.66 7.34 -2.32 6.68 -3 6 C-6.58343976 5.83322718 -6.58343976 5.83322718 -10 6 C-10.33 6.99 -10.66 7.98 -11 9 C-9.95199219 9.24234375 -8.90398437 9.4846875 -7.82421875 9.734375 C-6.4451158 10.0721145 -5.06622001 10.41070068 -3.6875 10.75 C-2.99720703 10.90726563 -2.30691406 11.06453125 -1.59570312 11.2265625 C1.48212269 11.99973613 3.64929953 12.66052195 5.953125 14.890625 C7.63907255 18.28768349 7.69892325 21.30026497 7 25 C4.79259319 27.96858157 3.51402627 28.82865791 0 30 C-5.48461828 30.59430848 -9.61340746 30.95994868 -14.25 27.75 C-16 25 -16 25 -15.8125 22.6875 C-15.544375 22.130625 -15.27625 21.57375 -15 21 C-13.35 21.33 -11.7 21.66 -10 22 C-10 22.66 -10 23.32 -10 24 C-7.03 24 -4.06 24 -1 24 C-0.67 22.35 -0.34 20.7 0 19 C-0.89203125 18.82984375 -1.7840625 18.6596875 -2.703125 18.484375 C-3.87359375 18.24203125 -5.0440625 17.9996875 -6.25 17.75 C-7.41015625 17.51796875 -8.5703125 17.2859375 -9.765625 17.046875 C-13.27125006 15.91220409 -14.78133832 14.90795463 -17 12 C-17.5 8.5 -17.5 8.5 -17 5 C-12.41075397 -0.81304498 -7.02267631 -0.92084084 0 0 Z " fill="#FBF2F2" transform="translate(235,64)"/>
<path d="M0 0 C4.875 0.875 4.875 0.875 6 2 C7.11375 1.87625 7.11375 1.87625 8.25 1.75 C11 2 11 2 13.875 3.9375 C16.47886811 7.69013345 16.4145265 9.46907789 15.65625 13.84375 C14.73162645 16.8817988 13.26337379 18.8052133 11 21 C8.19084526 22.40457737 6.11189466 22.24895157 3 22 C0.625 20.5 0.625 20.5 -1 19 C-1.99 21.31 -2.98 23.62 -4 26 C-6.475 25.01 -6.475 25.01 -9 24 C-6 16 -3 8 0 0 Z " fill="#FBEEEE" transform="translate(179,403)"/>
<path d="M0 0 C0.25 2.8125 0.25 2.8125 0 6 C-0.66 6.474375 -1.32 6.94875 -2 7.4375 C-4.40452676 8.94402432 -4.40452676 8.94402432 -4.5 12.5 C-4.35505054 15.96767622 -4.35505054 15.96767622 -2.3515625 17.6953125 C0.63099633 19.35008766 2.72859594 19.40003492 6.125 19.375 C7.70667969 19.38660156 7.70667969 19.38660156 9.3203125 19.3984375 C10.64675781 19.20121094 10.64675781 19.20121094 12 19 C14.4294516 15.3558226 14.16179575 13.28758728 14 9 C12.68 8.67 11.36 8.34 10 8 C10.33 6.35 10.66 4.7 11 3 C11.99 2.67 12.98 2.34 14 2 C18.58181818 5.16363636 18.58181818 5.16363636 20 8 C20.584169 13.61700962 20.39438651 18.29165743 17 23 C12.74396716 26.17116172 9.52997554 27.6952559 4.05078125 27.38671875 C-0.88503847 26.45596417 -4.67048021 24.09685382 -8.5 20.9375 C-10.83330677 16.36810757 -10.87427012 12.01786966 -10 7 C-7.73926746 2.70377396 -4.9723783 0 0 0 Z " fill="#FBF1F1" transform="translate(70,217)"/>
<path d="M0 0 C1.21236328 0.02707031 1.21236328 0.02707031 2.44921875 0.0546875 C3.37154297 0.08949219 3.37154297 0.08949219 4.3125 0.125 C3.9825 2.105 3.6525 4.085 3.3125 6.125 C2.19875 6.24875 1.085 6.3725 -0.0625 6.5 C-3.71853677 6.7715813 -3.71853677 6.7715813 -5.6875 9.125 C-6.35734367 13.33544591 -5.89594094 14.82391864 -3.4375 18.375 C-0.46218293 21.49202033 -0.46218293 21.49202033 3.3125 23.125 C6.43243606 23.04957659 6.43243606 23.04957659 9.3125 22.125 C11.47867415 18.87573878 11.52585669 18.5264758 10.9375 14.9375 C10.73125 13.679375 10.525 12.42125 10.3125 11.125 C11.9625 10.465 13.6125 9.805 15.3125 9.125 C17.78698571 12.83672856 17.97272291 15.82132473 17.3125 20.125 C15.09165243 24.48444153 12.89173841 27.29330464 8.3125 29.125 C4.2342281 29.89846536 0.85819074 29.8924028 -2.90625 28.0234375 C-7.60480235 24.74497 -10.46739109 21.39775866 -12.6875 16.125 C-13.41759258 11.5822017 -12.91776214 9.03417913 -10.375 5.3125 C-7.40114404 1.40987221 -4.94645093 -0.14337539 0 0 Z " fill="#FBF2F2" transform="translate(110.6875,127.875)"/>
<path d="M0 0 C2.63016161 2.1727422 4.47336894 3.94673788 6 7 C6.13415472 9.6723621 6.04318541 12.32250488 6 15 C4.02 15.99 4.02 15.99 2 17 C-0.09350689 13.5980513 -0.17942163 10.94727588 0 7 C-1.32 6.34 -2.64 5.68 -4 5 C-3.7525 6.4540625 -3.7525 6.4540625 -3.5 7.9375 C-1.95462966 19.28559264 -1.95462966 19.28559264 -4.5625 23.5625 C-7.99917081 25.58925458 -10.07417186 25.6198676 -14 25 C-17.17216699 22.4622664 -19.70236078 19.89291767 -21 16 C-21.36914086 12.45624771 -21.4203453 10.66554673 -19.5 7.625 C-19.005 7.08875 -18.51 6.5525 -18 6 C-17.01 6.33 -16.02 6.66 -15 7 C-14 10 -14 10 -14.5625 13 C-15.36700148 16.17420957 -15.36700148 16.17420957 -13 19 C-11.68 19 -10.36 19 -9 19 C-9.16048828 17.31970703 -9.16048828 17.31970703 -9.32421875 15.60546875 C-9.4461527 14.13288183 -9.56720032 12.66022133 -9.6875 11.1875 C-9.79674805 10.08051758 -9.79674805 10.08051758 -9.90820312 8.95117188 C-10.32677284 3.50976562 -10.32677284 3.50976562 -8.73046875 1.01953125 C-5.71402077 -0.75765368 -3.40088131 -0.46908708 0 0 Z " fill="#FCF4F4" transform="translate(110,329)"/>
<path d="M0 0 C2.97672584 1.77280561 5.42804007 3.85608015 7 7 C7.40417552 9.96395382 7.56382171 12.08904926 5.953125 14.69140625 C4.15636794 16.88450678 2.55808759 18.7209562 0 20 C-4.18144011 20.39447548 -6.30946048 20.45035186 -9.875 18.125 C-12.80038857 15.19961143 -12.96503325 14.42659437 -13.3125 10.1875 C-13.28232024 6.86772673 -13.0060988 6.00955479 -11.125 3.0625 C-7.52217335 -0.43436116 -4.97275774 -0.49727577 0 0 Z " fill="#FCF0F0" transform="translate(352,384)"/>
<path d="M0 0 C3.25 1.8125 3.25 1.8125 6 4 C6.639375 4.433125 7.27875 4.86625 7.9375 5.3125 C9 7 9 7 8.9375 10.4375 C7.92077418 14.30105812 7.29130321 15.77614648 4 18 C-1.12777976 19.04886404 -4.20439269 16.99828133 -8.36328125 14.2890625 C-10 13 -10 13 -11 11 C-11.35519903 7.16385043 -11.54724594 4.85370366 -9.4375 1.5625 C-6.02780394 -0.6232026 -3.987831 -0.55004566 0 0 Z " fill="#CD0606" transform="translate(96,161)"/>
<path d="M0 0 C3.60809377 3.17280096 5.86063801 6.52276291 6.3125 11.3125 C6 15 6 15 4.5 17.9375 C1.46715349 20.43959837 -0.24873741 20.73261949 -4.09765625 20.49609375 C-6 20 -6 20 -8.4375 17.6875 C-10.98753345 13.30144247 -11.88994096 9.02614386 -11 4 C-7.77100629 0.20118387 -4.91528605 -1.02401793 0 0 Z " fill="#CD0505" transform="translate(202,75)"/>
<path d="M0 0 C7.11791847 3.81607036 14.11027102 7.78545863 21 12 C20.34 13.32 19.68 14.64 19 16 C15.59687262 14.94124926 12.98646769 13.99097846 10 12 C9.76539063 12.82757813 9.53078125 13.65515625 9.2890625 14.5078125 C7.76252297 18.64334686 5.69028827 22.14159766 3.375 25.875 C2.95476562 26.56335938 2.53453125 27.25171875 2.1015625 27.9609375 C1.07307528 29.64391658 0.037279 31.32242532 -1 33 C-2.98 32.34 -4.96 31.68 -7 31 C-3.17653497 23.23104446 0.79734264 15.57074446 5 8 C3.5459375 7.5978125 3.5459375 7.5978125 2.0625 7.1875 C1.051875 6.795625 0.04125 6.40375 -1 6 C-1.33 5.01 -1.66 4.02 -2 3 C-1.34 2.01 -0.68 1.02 0 0 Z " fill="#FBF0F0" transform="translate(335,82)"/>
<path d="M0 0 C2.23828125 0.9765625 2.23828125 0.9765625 4 3 C4.49667816 5.90867388 4.37540178 8.7477928 4.25 11.6875 C4.23195312 12.48478516 4.21390625 13.28207031 4.1953125 14.10351562 C4.14822247 16.06952449 4.07647899 18.03491494 4 20 C1.33333333 20 -1.33333333 20 -4 20 C-4.99 20.061875 -5.98 20.12375 -7 20.1875 C-10 20 -10 20 -11.875 18.875 C-13.56570175 16.05716375 -13.53544229 14.21265373 -13 11 C-10.02723853 8.29748957 -8.21225709 8.01043887 -4.1875 7.8125 C-3.135625 7.874375 -2.08375 7.93625 -1 8 C-1.33 7.01 -1.66 6.02 -2 5 C-3.65 4.67 -5.3 4.34 -7 4 C-7 4.66 -7 5.32 -7 6 C-8.65 6 -10.3 6 -12 6 C-11.6875 4.125 -11.6875 4.125 -11 2 C-7.3946611 -0.40355927 -4.20638975 -0.75085268 0 0 Z " fill="#FBECEC" transform="translate(243,416)"/>
<path d="M0 0 C1.75 1.875 1.75 1.875 3 5 C3.34933594 5.82113281 3.69867188 6.64226562 4.05859375 7.48828125 C7 14.52119377 7 14.52119377 7 17 C5.9275 17.103125 4.855 17.20625 3.75 17.3125 C0.06866467 17.68567407 0.06866467 17.68567407 -2.0625 19.625 C-4 21 -4 21 -7.125 20.875 C-10 20 -10 20 -12 17 C-11.9375 14.5625 -11.9375 14.5625 -11 12 C-8.76261763 9.93472397 -6.72000458 8.36000229 -4 7 C-3.67 6.01 -3.34 5.02 -3 4 C-4.98 4.33 -6.96 4.66 -9 5 C-9 5.99 -9 6.98 -9 8 C-10.65 8 -12.3 8 -14 8 C-13.73593684 4.74322102 -13.43253722 3.38010847 -10.9375 1.1875 C-6.85857681 -0.4614264 -4.39372303 -0.566932 0 0 Z " fill="#FBECEC" transform="translate(305,408)"/>
<path d="M0 0 C3.78587643 0.16826117 5.52663964 0.55222668 8.3125 3.1875 C10.25148923 6.41914872 10.97225272 8.22174565 11 12 C9.04842285 14.31052256 7.36477602 15.99433945 5.0625 17.875 C4.1972168 18.62136719 4.1972168 18.62136719 3.31445312 19.3828125 C1.89120634 20.60609899 0.44746561 21.80546891 -1 23 C-4 21 -4 21 -5 18 C-6.03125 17.236875 -7.0625 16.47375 -8.125 15.6875 C-9.07375 14.800625 -10.0225 13.91375 -11 13 C-11 9.21693288 -10.68615656 7.68615656 -8 5 C-2.69997555 5.20000092 0.14766237 6.38113738 4 10 C4.33 9.01 4.66 8.02 5 7 C4.195625 6.566875 3.39125 6.13375 2.5625 5.6875 C0 4 0 4 -1 1 C-0.67 0.67 -0.34 0.34 0 0 Z " fill="#FBEDED" transform="translate(112,351)"/>
<path d="M0 0 C2.12890625 0.40234375 2.12890625 0.40234375 4.69140625 1.77734375 C6.94871967 5.89939435 6.85249451 9.81707917 6.12890625 14.40234375 C4.69140625 17.02734375 4.69140625 17.02734375 2.12890625 18.40234375 C-0.94367812 18.87376915 -3.81749194 19.0265607 -6.87109375 18.40234375 C-9.3311261 16.48026836 -9.85828294 15.44077618 -10.87109375 12.40234375 C-11.23680524 8.45265967 -11.18841709 6.05078709 -9.43359375 2.46484375 C-6.17090459 -0.16122313 -4.10026808 -0.27695386 0 0 Z " fill="#120E00" transform="translate(298.87109375,306.59765625)"/>
<path d="M0 0 C3.75572342 -0.55231227 5.0005274 0.00034484 8.25 2.125 C11.37791508 5.39509304 11.97292464 6.53798063 12 11 C10.41948373 13.42838201 9.00293666 15.2876777 7.0625 17.375 C6.58103516 17.92027344 6.09957031 18.46554687 5.60351562 19.02734375 C4.41792726 20.3655326 3.21097531 21.68474034 2 23 C1.01 22.34 0.02 21.68 -1 21 C-1 20.01 -1 19.02 -1 18 C-1.94875 17.87625 -2.8975 17.7525 -3.875 17.625 C-7 17 -7 17 -9 15 C-9.3125 11.5 -9.3125 11.5 -9 8 C-6 6 -6 6 -3.1875 6.25 C-0.04239599 6.99002447 2.95840457 7.91371592 6 9 C5.67 8.01 5.34 7.02 5 6 C2.49552484 4.78130071 2.49552484 4.78130071 0 4 C0 2.68 0 1.36 0 0 Z " fill="#FCF0F0" transform="translate(132,373)"/>
<path d="M0 0 C2.27100178 0.25432354 4.44282775 0.6200217 6.6640625 1.15234375 C7.6809938 3.80732607 7.79428401 4.8438975 6.66796875 7.51171875 C6.19230469 8.300625 5.71664063 9.08953125 5.2265625 9.90234375 C4.75347656 10.7015625 4.28039062 11.50078125 3.79296875 12.32421875 C3.42042969 12.9275 3.04789062 13.53078125 2.6640625 14.15234375 C4.3140625 13.49234375 5.9640625 12.83234375 7.6640625 12.15234375 C7.6640625 10.50234375 7.6640625 8.85234375 7.6640625 7.15234375 C8.9840625 6.49234375 10.3040625 5.83234375 11.6640625 5.15234375 C12.6640625 6.15234375 12.6640625 6.15234375 13.0390625 9.33984375 C12.53619535 14.45232647 11.51820583 15.79021872 7.6640625 19.15234375 C3.26411181 19.95233478 1.27400264 19.48608458 -2.6484375 17.33984375 C-5.70807659 14.84943984 -7.16082544 13.27806414 -7.7734375 9.33984375 C-7.13162155 4.66375609 -5.22949972 0.34105433 0 0 Z " fill="#FBEDED" transform="translate(394.3359375,331.84765625)"/>
<path d="M0 0 C2.60546875 1.71484375 2.60546875 1.71484375 5.1875 3.9375 C8.39904159 6.76340095 8.39904159 6.76340095 12 9 C11.34 10.32 10.68 11.64 10 13 C9.01 13 8.02 13 7 13 C6.896875 13.763125 6.79375 14.52625 6.6875 15.3125 C5.92796199 18.28160312 5.63004984 19.4219701 3 21 C-3.44444444 20.55555556 -3.44444444 20.55555556 -5 19 C-5.6837704 13.39308276 -3.68743693 9.7270096 -1 5 C-3.49004504 5.56076801 -3.49004504 5.56076801 -6 7 C-7.37189827 10.02982306 -7.37189827 10.02982306 -8 13 C-8.99 12.67 -9.98 12.34 -11 12 C-10.75058473 7.75994038 -10.36445139 5.47581154 -7.75 2.0625 C-4.62137128 -0.28397154 -3.78425219 -0.53503418 0 0 Z " fill="#FCF2F2" transform="translate(380,356)"/>
<path d="M0 0 C2.0625 0.4375 2.0625 0.4375 4 1 C4.33 2.32 4.66 3.64 5 5 C4.19175781 5.73605469 3.38351562 6.47210938 2.55078125 7.23046875 C1.47129779 8.21608409 0.39187388 9.20176465 -0.6875 10.1875 C-1.48317383 10.91163086 -1.48317383 10.91163086 -2.29492188 11.65039062 C-5.61727252 14.687386 -8.84058321 17.7936902 -12 21 C-9.03 24.3 -6.06 27.6 -3 31 C-4.32 32.32 -5.64 33.64 -7 35 C-8.98828384 32.92474748 -10.96550136 30.84063193 -12.9375 28.75 C-13.50146484 28.16347656 -14.06542969 27.57695312 -14.64648438 26.97265625 C-15.18466797 26.39902344 -15.72285156 25.82539063 -16.27734375 25.234375 C-16.77484131 24.71069336 -17.27233887 24.18701172 -17.78491211 23.64746094 C-19.15731702 21.78670379 -19.58589322 20.2572038 -20 18 C-14.2013749 12.70235906 -8.39463114 7.42391477 -2.4609375 2.27734375 C-1.61953273 1.54167701 -0.79030613 0.79030613 0 0 Z " fill="#FBF1F1" transform="translate(386,121)"/>
<path d="M0 0 C2.9375 1.4375 2.9375 1.4375 5 4 C5.40891377 7.04588337 5.2935429 9.94715389 5 13 C0.28596212 12.52060632 -3.66579301 12.03165952 -8 10 C-7.34 11.65 -6.68 13.3 -6 15 C-5.071875 14.79375 -4.14375 14.5875 -3.1875 14.375 C0 14 0 14 3 16 C2 19 2 19 0 20 C-5.26883876 20.59873168 -7.8846468 19.25400021 -12 16 C-13.76073933 12.47852134 -12.92538045 8.72722681 -12 5 C-8.59646687 0.09490813 -5.87700862 -0.94451924 0 0 Z " fill="#FBEEEE" transform="translate(208,411)"/>
<path d="M0 0 C2.3125 1 2.3125 1 4 3 C4.62517874 7.76698791 4.42918924 10.05578368 2.4375 14.4375 C0 17 0 17 -3.4375 18.1875 C-7 18 -7 18 -10 16 C-12 13 -12 13 -12.0625 9.5 C-10.93704293 5.792612 -9.68198325 3.76325547 -7 1 C-4.4362736 -0.2818632 -2.84782869 -0.27122178 0 0 Z " fill="#CE0A0A" transform="translate(167,391)"/>
<path d="M0 0 C11.625 -0.25 11.625 -0.25 15 2 C15.375 4.9375 15.375 4.9375 15 8 C13.5 9.875 13.5 9.875 12 11 C12.66 11.78375 13.32 12.5675 14 13.375 C16 16 16 16 16 18 C13.6875 17.8125 13.6875 17.8125 11 17 C9.96986723 15.35178756 8.96885372 13.68496298 8 12 C5.91466367 11.12177688 5.91466367 11.12177688 4 11 C4 13.31 4 15.62 4 18 C2.68 18 1.36 18 0 18 C0 12.06 0 6.12 0 0 Z " fill="#110D00" transform="translate(270,307)"/>
<path d="M0 0 C3.28286357 2.36030702 4.61458182 5.59882026 6.390625 9.1640625 C6.75414062 9.87046875 7.11765625 10.576875 7.4921875 11.3046875 C8.38543117 13.04416202 9.26443498 14.79093581 10.140625 16.5390625 C13.3347641 16.5390625 14.4587417 16.01641276 17.203125 14.5390625 C20.93229167 12.5390625 20.93229167 12.5390625 23.140625 12.5390625 C23.470625 13.8590625 23.800625 15.1790625 24.140625 16.5390625 C21.87417442 17.88037011 19.60302403 19.21222484 17.328125 20.5390625 C16.68552734 20.920625 16.04292969 21.3021875 15.38085938 21.6953125 C10.48046875 24.5390625 10.48046875 24.5390625 7.140625 24.5390625 C5.29727297 21.10684441 3.46769591 17.66747123 1.640625 14.2265625 C1.11597656 13.25009766 0.59132813 12.27363281 0.05078125 11.26757812 C-0.44550781 10.32978516 -0.94179688 9.39199219 -1.453125 8.42578125 C-1.91396484 7.56170654 -2.37480469 6.69763184 -2.84960938 5.80737305 C-3.859375 3.5390625 -3.859375 3.5390625 -3.859375 0.5390625 C-1.859375 -0.4609375 -1.859375 -0.4609375 0 0 Z " fill="#FCF2F2" transform="translate(318.859375,393.4609375)"/>
<path d="M0 0 C2.33944736 0.28730055 4.6739143 0.61936779 7 1 C6.375 2.875 6.375 2.875 5 5 C1.875 6.25 1.875 6.25 -1 7 C-0.66753345 10.07531556 -0.36895244 11.61832506 1.8125 13.875 C3.93060967 15.229551 3.93060967 15.229551 6.25 14.6875 C7.11625 14.3471875 7.11625 14.3471875 8 14 C8 12.35 8 10.7 8 9 C9.65 8.34 11.3 7.68 13 7 C13.60356653 14.12208505 13.60356653 14.12208505 10.9375 18 C7.20163958 20.54356454 5.44000949 20.77894903 1 20 C-1.9653252 18.1955963 -4.42249025 16.15501951 -6 13 C-6.375 9.6875 -6.375 9.6875 -6 6 C-3.5625 3.125 -3.5625 3.125 -1 1 C-0.67 0.67 -0.34 0.34 0 0 Z " fill="#FCF3F3" transform="translate(362,370)"/>
<path d="M0 0 C1.32 0.66 2.64 1.32 4 2 C4 6 4 6 2.62646484 7.40039062 C1.99434082 7.81482422 1.3622168 8.22925781 0.7109375 8.65625 C0.01613281 9.12160156 -0.67867188 9.58695313 -1.39453125 10.06640625 C-2.49861328 10.77603516 -2.49861328 10.77603516 -3.625 11.5 C-4.33785156 11.97308594 -5.05070312 12.44617188 -5.78515625 12.93359375 C-7.8493009 14.30085287 -9.92413252 15.65063534 -12 17 C-14.00359981 18.3280284 -16.00188607 19.66372191 -18 21 C-19.32 20.34 -20.64 19.68 -22 19 C-21.62989567 16.37801326 -21.23845397 15.22422398 -19.28173828 13.38427734 C-18.55196777 12.8733252 -17.82219727 12.36237305 -17.0703125 11.8359375 C-16.27496094 11.27132812 -15.47960937 10.70671875 -14.66015625 10.125 C-13.82355469 9.5475 -12.98695313 8.97 -12.125 8.375 C-11.29613281 7.78976563 -10.46726562 7.20453125 -9.61328125 6.6015625 C-6.43345426 4.3618136 -3.23627066 2.15751377 0 0 Z " fill="#FBF1F1" transform="translate(404,142)"/>
<path d="M0 0 C2.97 0.495 2.97 0.495 6 1 C5.37165495 4.79111532 4.26471197 8.00780452 2.71484375 11.51953125 C2.26689453 12.54111328 1.81894531 13.56269531 1.35742188 14.61523438 C0.88884766 15.67033203 0.42027344 16.72542969 -0.0625 17.8125 C-0.53494141 18.88693359 -1.00738281 19.96136719 -1.49414062 21.06835938 C-2.65832536 23.71423376 -3.82707832 26.35798995 -5 29 C-6.98 28.34 -8.96 27.68 -11 27 C-7.57712062 17.88241863 -3.89382182 8.92501429 0 0 Z " fill="#FBF0F0" transform="translate(323,78)"/>
<path d="M0 0 C1.2065625 0.0309375 1.2065625 0.0309375 2.4375 0.0625 C0.51039294 13.6957574 0.51039294 13.6957574 -1.5625 20.0625 C-3.2125 20.3925 -4.8625 20.7225 -6.5625 21.0625 C-8.23769118 18.63048137 -9.90275134 16.19252202 -11.5625 13.75 C-12.03945313 13.05970703 -12.51640625 12.36941406 -13.0078125 11.65820312 C-13.45898438 10.99111328 -13.91015625 10.32402344 -14.375 9.63671875 C-14.79394531 9.02401123 -15.21289062 8.41130371 -15.64453125 7.7800293 C-16.5625 6.0625 -16.5625 6.0625 -16.5625 3.0625 C-14.26953125 2.75 -14.26953125 2.75 -11.5625 3.0625 C-9.76171875 5.25 -9.76171875 5.25 -8.25 8.0625 C-7.73824219 8.990625 -7.22648437 9.91875 -6.69921875 10.875 C-6.32410156 11.596875 -5.94898438 12.31875 -5.5625 13.0625 C-5.42972656 12.20785156 -5.29695313 11.35320312 -5.16015625 10.47265625 C-4.98355469 9.36792969 -4.80695313 8.26320313 -4.625 7.125 C-4.45097656 6.02285156 -4.27695312 4.92070312 -4.09765625 3.78515625 C-3.36981364 0.08219058 -3.36981364 0.08219058 0 0 Z " fill="#FBEDED" transform="translate(286.5625,411.9375)"/>
<path d="M0 0 C10.625 -0.25 10.625 -0.25 14 2 C14.39570119 5.0996593 14.49754211 7.12198451 12.9375 9.875 C9.99772876 11.58196395 7.32129197 11.18799766 4 11 C4 13.31 4 15.62 4 18 C2.68 18 1.36 18 0 18 C0 12.06 0 6.12 0 0 Z " fill="#110E04" transform="translate(201,307)"/>
<path d="M0 0 C1.65 0 3.3 0 5 0 C6.0063655 2.43504509 7.00526413 4.87270864 8 7.3125 C8.28617187 8.00279297 8.57234375 8.69308594 8.8671875 9.40429688 C10.08910744 12.41545674 11 14.71886984 11 18 C9.68 18 8.36 18 7 18 C6.67 17.01 6.34 16.02 6 15 C3.36 14.67 0.72 14.34 -2 14 C-2.33 15.32 -2.66 16.64 -3 18 C-4.32 17.67 -5.64 17.34 -7 17 C-4.69 11.39 -2.38 5.78 0 0 Z " fill="#100D01" transform="translate(257,307)"/>
<path d="M0 0 C0 2.31 0 4.62 0 7 C1.32 7 2.64 7 4 7 C4 8.32 4 9.64 4 11 C3.01 11 2.02 11 1 11 C1 14.63 1 18.26 1 22 C2.32 22 3.64 22 5 22 C4.67 23.32 4.34 24.64 4 26 C1.125 26.125 1.125 26.125 -2 26 C-4 24 -4 24 -4.1953125 20.9609375 C-4.16050781 19.18589844 -4.16050781 19.18589844 -4.125 17.375 C-4.10695312 16.18648438 -4.08890625 14.99796875 -4.0703125 13.7734375 C-4.04710937 12.85820312 -4.02390625 11.94296875 -4 11 C-4.99 11 -5.98 11 -7 11 C-7 9.68 -7 8.36 -7 7 C-6.34 7 -5.68 7 -5 7 C-4.896875 6.21625 -4.79375 5.4325 -4.6875 4.625 C-4.00541465 2.02067414 -3.23533224 0 0 0 Z " fill="#FCF2F2" transform="translate(256,410)"/>
<path d="M0 0 C4.62 0 9.24 0 14 0 C14 0.99 14 1.98 14 3 C10.7 3 7.4 3 4 3 C4 4.32 4 5.64 4 7 C6.97 7 9.94 7 13 7 C13 7.99 13 8.98 13 10 C10.03 10 7.06 10 4 10 C4 11.65 4 13.3 4 15 C7.3 15 10.6 15 14 15 C14 15.99 14 16.98 14 18 C9.38 18 4.76 18 0 18 C0 12.06 0 6.12 0 0 Z " fill="#0B0900" transform="translate(218,307)"/>
<path d="M0 0 C1.19109375 0.00773437 1.19109375 0.00773437 2.40625 0.015625 C3.2003125 0.01046875 3.994375 0.0053125 4.8125 0 C6.90625 0.265625 6.90625 0.265625 8.90625 2.265625 C8.90625 3.255625 8.90625 4.245625 8.90625 5.265625 C4.45125 4.275625 4.45125 4.275625 -0.09375 3.265625 C-0.09375 4.255625 -0.09375 5.245625 -0.09375 6.265625 C1.92447917 6.72135417 3.94270833 7.17708333 5.9609375 7.6328125 C7.90625 8.265625 7.90625 8.265625 9.90625 10.265625 C10.26558543 13.06844138 10.40618115 14.60640979 8.66796875 16.8984375 C5.88353645 19.05930514 3.41425411 18.73426659 0.00390625 18.62890625 C-2.09375 18.265625 -2.09375 18.265625 -4.15625 16.390625 C-5.09375 14.265625 -5.09375 14.265625 -5.09375 12.265625 C-3.77375 12.265625 -2.45375 12.265625 -1.09375 12.265625 C-0.76375 12.925625 -0.43375 13.585625 -0.09375 14.265625 C1.55625 14.265625 3.20625 14.265625 4.90625 14.265625 C5.23625 13.275625 5.56625 12.285625 5.90625 11.265625 C4.813125 11.1625 3.72 11.059375 2.59375 10.953125 C-1.09375 10.265625 -1.09375 10.265625 -3.03125 9.015625 C-4.48475294 6.62162015 -4.44631314 5.0156175 -4.09375 2.265625 C-2.09375 0.265625 -2.09375 0.265625 0 0 Z " fill="#130F00" transform="translate(239.09375,306.734375)"/>
<path d="M0 0 C7.57748121 4.69012377 14.85282508 9.6776357 22 15 C21.34 16.32 20.68 17.64 20 19 C15.60918913 18.10916283 12.54492237 15.74290292 9 13.125 C8.38382812 12.67769531 7.76765625 12.23039062 7.1328125 11.76953125 C4.06820338 9.54012676 1.02453778 7.28352602 -2 5 C-1.34 3.35 -0.68 1.7 0 0 Z " fill="#FBEFEF" transform="translate(376,342)"/>
<path d="M0 0 C1.65 0 3.3 0 5 0 C5.33 0.66 5.66 1.32 6 2 C7.65 1.67 9.3 1.34 11 1 C11.33 1.99 11.66 2.98 12 4 C11 6 11 6 7.9375 7.125 C6.968125 7.41375 5.99875 7.7025 5 8 C4.34 11.96 3.68 15.92 3 20 C1.35 20 -0.3 20 -2 20 C-2.26618595 13.04958914 -1.6120509 6.76485645 0 0 Z " fill="#FAE6E6" transform="translate(218,414)"/>
<path d="M0 0 C1.32 0.66 2.64 1.32 4 2 C0.49305013 10.15827286 -7.88812113 16.05850378 -15 21 C-15.99 19.68 -16.98 18.36 -18 17 C-12.18590512 11.09128152 -6.41069287 5.27101414 0 0 Z " fill="#FCF1F1" transform="translate(132,360)"/>
<path d="M0 0 C1.65 0 3.3 0 5 0 C5.33659249 2.41625321 5.66938388 4.83292808 6 7.25 C6.09539062 7.93191406 6.19078125 8.61382812 6.2890625 9.31640625 C6.7345226 12.59371988 7 15.68384153 7 19 C5.02 19 3.04 19 1 19 C0.25492456 12.62694402 -0.10349817 6.41688675 0 0 Z " fill="#FAE9E9" transform="translate(263,416)"/>
<path d="M0 0 C2.5 0.25 2.5 0.25 4.5 2.25 C4.765625 4.125 4.765625 4.125 4.75 6.25 C4.75515625 6.95125 4.7603125 7.6525 4.765625 8.375 C4.5 10.25 4.5 10.25 2.5 12.25 C0 12.5 0 12.5 -2.5 12.25 C-4.5 10.25 -4.5 10.25 -4.765625 8.375 C-4.76046875 7.67375 -4.7553125 6.9725 -4.75 6.25 C-4.75515625 5.54875 -4.7603125 4.8475 -4.765625 4.125 C-4.31971142 0.97737476 -3.03899237 0.30389924 0 0 Z " fill="#FAC50D" transform="translate(296.5,309.75)"/>
<path d="M0 0 C3.125 0.3125 3.125 0.3125 5.0625 1.9375 C6.46557059 5.07377543 5.94387495 7.03700019 5.125 10.3125 C2.875 11.0625 2.875 11.0625 0.125 11.3125 C-2.1875 9.75 -2.1875 9.75 -3.875 7.3125 C-4.1875 4.125 -4.1875 4.125 -3.875 1.3125 C-2.875 0.3125 -2.875 0.3125 0 0 Z " fill="#CE0C0C" transform="translate(347.875,388.6875)"/>
<path d="M0 0 C1.1446875 0.3403125 1.1446875 0.3403125 2.3125 0.6875 C3.0625 2.8125 3.0625 2.8125 3.3125 5.6875 C1.375 9 1.375 9 -0.6875 11.6875 C-3.55474686 11.11405063 -4.5489515 10.8260485 -6.6875 8.6875 C-6.48905087 5.57846369 -6.13726842 3.38464105 -4.4375 0.75 C-2.6875 -0.3125 -2.6875 -0.3125 0 0 Z " fill="#CF1212" transform="translate(186.6875,409.3125)"/>
<path d="M0 0 C0.33 1.65 0.66 3.3 1 5 C-0.28813342 5.83878455 -1.58063256 6.67086783 -2.875 7.5 C-3.59429687 7.9640625 -4.31359375 8.428125 -5.0546875 8.90625 C-7 10 -7 10 -9 10 C-10.29024129 7.8748967 -11 6.44654501 -11 3.9375 C-8.82834149 -0.27008837 -4.2998429 -1.8191643 0 0 Z " fill="#CE0B0B" transform="translate(171,88)"/>
<path d="M0 0 C1.66611905 -0.042721 3.33382885 -0.04063832 5 0 C5.33 0.33 5.66 0.66 6 1 C5.9140625 2.99609375 5.9140625 2.99609375 5.625 5.4375 C5.53476563 6.24058594 5.44453125 7.04367188 5.3515625 7.87109375 C5 10 5 10 4 12 C1.69 11.67 -0.62 11.34 -3 11 C-2.53199289 6.94393835 -2.12046792 3.53411321 0 0 Z " fill="#CE0B0B" transform="translate(74,192)"/>
<path d="M0 0 C2.125 0.375 2.125 0.375 4 1 C4 1.66 4 2.32 4 3 C5.32 3 6.64 3 8 3 C8.33 2.01 8.66 1.02 9 0 C11.49361571 1.20381448 13.68143083 2.45428722 16 4 C10.52089963 5.54060872 5.12289381 6.03978472 -0.0625 3.5 C-0.701875 3.005 -1.34125 2.51 -2 2 C-1.34 1.34 -0.68 0.68 0 0 Z " fill="#EBBD1D" transform="translate(163,257)"/>
<path d="M0 0 C-1.98 2.31 -3.96 4.62 -6 7 C-6.99 6.67 -7.98 6.34 -9 6 C-10.1875 2.9375 -10.1875 2.9375 -11 0 C-6.79405774 -0.72795155 -4.19895255 -1.04973814 0 0 Z " fill="#D01818" transform="translate(413,168)"/>
<path d="M0 0 C-0.66 2.97 -1.32 5.94 -2 9 C-5.52032428 9 -6.4385343 8.29648649 -9 6 C-9 5.34 -9 4.68 -9 4 C-2.25 0 -2.25 0 0 0 Z " fill="#D01717" transform="translate(366,112)"/>
<path d="M0 0 C0.66 0 1.32 0 2 0 C2 3.3 2 6.6 2 10 C0.02 10 -1.96 10 -4 10 C-4.33 9.34 -4.66 8.68 -5 8 C-4.07421875 6.0546875 -4.07421875 6.0546875 -2.6875 3.875 C-2.23761719 3.15054688 -1.78773438 2.42609375 -1.32421875 1.6796875 C-0.88722656 1.12539062 -0.45023437 0.57109375 0 0 Z " fill="#D01818" transform="translate(289,75)"/>
<path d="M0 0 C1.4800841 0.11362262 2.95910074 0.24122908 4.4375 0.375 C5.26121094 0.44460937 6.08492188 0.51421875 6.93359375 0.5859375 C7.95646484 0.79089844 7.95646484 0.79089844 9 1 C9.33 1.66 9.66 2.32 10 3 C8.71086513 3.67154933 7.41859796 4.33708859 6.125 5 C5.40570313 5.37125 4.68640625 5.7425 3.9453125 6.125 C2 7 2 7 0 7 C0 4.69 0 2.38 0 0 Z " fill="#CF1212" transform="translate(423,227)"/>
<path d="M0 0 C1.48206495 0.254496 2.96068615 0.52911762 4.4375 0.8125 C5.67306641 1.03873047 5.67306641 1.03873047 6.93359375 1.26953125 C7.95646484 1.63111328 7.95646484 1.63111328 9 2 C9.33 2.99 9.66 3.98 10 5 C7.36 5.33 4.72 5.66 2 6 C0 3 0 3 0 0 Z " fill="#D22222" transform="translate(200,421)"/>
<path d="M0 0 C0.99 0.33 1.98 0.66 3 1 C2.67 1.99 2.34 2.98 2 4 C1.65772583 5.33106622 1.32248257 6.66400079 1 8 C-0.65 8.33 -2.3 8.66 -4 9 C-2.94124926 5.59687262 -1.99097846 2.98646769 0 0 Z " fill="#CE0D0D" transform="translate(401,337)"/>
<path d="M0 0 C2.31 0 4.62 0 7 0 C6.67 1.65 6.34 3.3 6 5 C4.02 5 2.04 5 0 5 C0 3.35 0 1.7 0 0 Z " fill="#E5B40C" transform="translate(274,310)"/>
<path d="M0 0 C-0.33 1.32 -0.66 2.64 -1 4 C-2.65 4 -4.3 4 -6 4 C-6.33 3.01 -6.66 2.02 -7 1 C-7.66 0.67 -8.32 0.34 -9 0 C-5.93109813 -1.53445094 -3.29905734 -0.54984289 0 0 Z " fill="#ECBA0C" transform="translate(245,318)"/>
<path d="M0 0 C-0.875 3.875 -0.875 3.875 -2 5 C-3.66617115 5.04063832 -5.33388095 5.042721 -7 5 C-7 3.68 -7 2.36 -7 1 C-4.53721199 -0.231394 -2.7204945 -0.07159196 0 0 Z " fill="#D11919" transform="translate(242,427)"/>
<path d="M0 0 C1.98 0.66 3.96 1.32 6 2 C5.34 3.32 4.68 4.64 4 6 C2.35 5.67 0.7 5.34 -1 5 C-0.67 3.35 -0.34 1.7 0 0 Z " fill="#D01616" transform="translate(129,383)"/>
<path d="M0 0 C1.65 0 3.3 0 5 0 C5.33 1.65 5.66 3.3 6 5 C4.02 5 2.04 5 0 5 C0 3.35 0 1.7 0 0 Z " fill="#F7EECD" transform="translate(205,310)"/>
<path d="M0 0 C0.042721 1.66611905 0.04063832 3.33382885 0 5 C-1 6 -1 6 -3.5625 6.0625 C-4.7690625 6.0315625 -4.7690625 6.0315625 -6 6 C-5.6875 4.125 -5.6875 4.125 -5 2 C-2 0 -2 0 0 0 Z " fill="#CE0E0E" transform="translate(304,418)"/>
<path d="M0 0 C0.99 0.33 1.98 0.66 3 1 C3 2.65 3 4.3 3 6 C1.68 6.33 0.36 6.66 -1 7 C-1.625 5.1875 -1.625 5.1875 -2 3 C-1.34 2.01 -0.68 1.02 0 0 Z " fill="#CE0A0A" transform="translate(381,365)"/>
<path d="M0 0 C1.65 0 3.3 0 5 0 C5.66 1.32 6.32 2.64 7 4 C4.625 4.625 4.625 4.625 2 5 C1.34 4.34 0.68 3.68 0 3 C0 2.01 0 1.02 0 0 Z " fill="#CE0F0F" transform="translate(106,361)"/>
<path d="M0 0 C1.65 0 3.3 0 5 0 C5.33 1.32 5.66 2.64 6 4 C3.69 4 1.38 4 -1 4 C-1.33 3.34 -1.66 2.68 -2 2 C-1.34 2 -0.68 2 0 2 C0 1.34 0 0.68 0 0 Z " fill="#D01515" transform="translate(236,420)"/>
<path d="M0 0 C1.65 0.33 3.3 0.66 5 1 C5.33 2.32 5.66 3.64 6 5 C3.03 4.505 3.03 4.505 0 4 C0 2.68 0 1.36 0 0 Z " fill="#CF1111" transform="translate(203,415)"/>
<path d="M0 0 C1.32 0 2.64 0 4 0 C2.92598892 2.91517292 2.22189824 4.77810176 0 7 C-0.66 6.34 -1.32 5.68 -2 5 C-1.46428571 1.46428571 -1.46428571 1.46428571 0 0 Z " fill="#CF1313" transform="translate(393,337)"/>
<path d="M0 0 C3.14624993 -0.26218749 4.61837017 -0.24754367 7.3125 1.5 C8.1478125 2.2425 8.1478125 2.2425 9 3 C2.25 4.125 2.25 4.125 0 3 C0 2.01 0 1.02 0 0 Z " fill="#E9B70C" transform="translate(239,310)"/>
<path d="M0 0 C1.65 0 3.3 0 5 0 C5 1.32 5 2.64 5 4 C3.35 4 1.7 4 0 4 C0 2.68 0 1.36 0 0 Z " fill="#FDF8F8" transform="translate(262,409)"/>
<path d="M0 0 C2.1385485 2.1385485 2.42655063 3.13275314 3 6 C1.35 6 -0.3 6 -2 6 C-1.125 1.125 -1.125 1.125 0 0 Z " fill="#D1A50B" transform="translate(259,312)"/>
<path d="M0 0 C0 0.66 0 1.32 0 2 C0.66 2.33 1.32 2.66 2 3 C-0.3431213 2.74438677 -2.67843403 2.40729228 -5 2 C-5.33 1.34 -5.66 0.68 -6 0 C-3.50907189 -1.24546405 -2.58919267 -0.7767578 0 0 Z " fill="#F4C82D" transform="translate(167,258)"/>
</svg>
